# xmcd
#
# Track frame offsets:
#	150
#	11289
#	28039
#	47336
#	74338
#	97040
#	114973
#	134792
#	161823
#	185160
#	206714
#	226755
#	248350
#
# Disc length: 3581 seconds
#
# Revision: 0
# Processed by: cddbd v1.5.1PL2 Copyright (c) Steve Scherf et al.
# Submitted via: audiograbber 1.83.01
#
DISCID=ab0dfb0d
DTITLE=Bruce Springsteen - We Shall Overcome - The Seeger Sessions
DYEAR=2006
DGENRE=Country
TTITLE0=Old Dan Tucker
TTITLE1=Jessie James
TTITLE2=Mrs. McGrath
TTITLE3=Oh Mary, Don't You Weep
TTITLE4=John Henry
TTITLE5=Erie Canal
TTITLE6=Jacob's Ladder
TTITLE7=My Oklahoma Home
TTITLE8=Eyes On The Prize
TTITLE9=Shenandoah
TTITLE10=Pay Me My Money Down
TTITLE11=We Shall Overcome
TTITLE12=Froggie Went A-Courtin'
EXTD=
EXTT0=
EXTT1=
EXTT2=
EXTT3=
EXTT4=
EXTT5=
EXTT6=
EXTT7=
EXTT8=
EXTT9=
EXTT10=
EXTT11=
EXTT12=
PLAYORDER=
